<?xml version="1.0"?>
<svg xmlns="http://www.w3.org/2000/svg" xmlns:xlink="http://www.w3.org/1999/xlink" version="1.1" id="Capa_1" x="0px" y="0px" viewBox="0 0 512 512" style="enable-background:new 0 0 512 512;" xml:space="preserve" width="512px" height="512px"><g><g>
	<g>
		<path d="M90,287c-24.814,0-45,20.186-45,45c0,24.814,20.186,45,45,45c24.814,0,45-20.186,45-45C135,307.186,114.814,287,90,287z" data-original="#000000" class="active-path" data-old_color="#000000" fill="#FFFFFF"/>
	</g>
</g><g>
	<g>
		<path d="M120,377H90H60c-33.091,0-60,26.909-60,60v60c0,8.291,6.709,15,15,15h150c8.291,0,15-6.709,15-15v-60    C180,403.909,153.091,377,120,377z" data-original="#000000" class="active-path" data-old_color="#000000" fill="#FFFFFF"/>
	</g>
</g><g>
	<g>
		<path d="M422,287c-24.814,0-45,20.186-45,45c0,24.814,20.186,45,45,45c24.814,0,45-20.186,45-45C467,307.186,446.814,287,422,287z    " data-original="#000000" class="active-path" data-old_color="#000000" fill="#FFFFFF"/>
	</g>
</g><g>
	<g>
		<path d="M452,377h-30h-30c-33.091,0-60,26.909-60,60v60c0,8.291,6.709,15,15,15h150c8.291,0,15-6.709,15-15v-60    C512,403.909,485.091,377,452,377z" data-original="#000000" class="active-path" data-old_color="#000000" fill="#FFFFFF"/>
	</g>
</g><g>
	<g>
		<path d="M256,0H136C94.579,0,61,33.579,61,75v90c0,36.226,25.811,66.519,60,73.491v46.507c0,13.363,16.157,20.056,25.607,10.606    L202.211,240H256c41.421,0,75-33.579,75-75V75C331,33.579,297.421,0,256,0z M251.605,85.605l-60,60    c-5.857,5.857-15.354,5.857-21.211,0l-30-30c-5.859-5.859-5.859-15.352,0-21.211c5.859-5.859,15.352-5.859,21.211,0L181,113.789    l49.395-49.395c5.859-5.859,15.352-5.859,21.211,0S257.465,79.746,251.605,85.605z" data-original="#000000" class="active-path" data-old_color="#000000" fill="#FFFFFF"/>
	</g>
</g><g>
	<g>
		<path d="M376,30h-25.532C357.023,43.693,361,58.835,361,75v90c0,34.354-16.824,64.631-42.411,83.8l46.804,46.804    c9.45,9.45,25.607,2.757,25.607-10.606v-46.507c34.189-6.973,60-37.266,60-73.491v-60C451,63.579,417.421,30,376,30z" data-original="#000000" class="active-path" data-old_color="#000000" fill="#FFFFFF"/>
	</g>
</g></g> </svg>
